<?xml version="1.0" standalone="no"?>
<!DOCTYPE svg PUBLIC "-//W3C//DTD SVG 20010904//EN"
 "http://www.w3.org/TR/2001/REC-SVG-20010904/DTD/svg10.dtd">
<svg version="1.0" xmlns="http://www.w3.org/2000/svg"
 width="260.000000pt" height="260.000000pt" viewBox="0 0 260.000000 260.000000"
 preserveAspectRatio="xMidYMid meet">
<metadata>
Created by potrace 1.11, written by Peter Selinger 2001-2013
</metadata>
<g transform="translate(0.000000,260.000000) scale(0.100000,-0.100000)"
fill="#000000" stroke="none">
<path d="M156 2073 c3 -32 8 -60 9 -63 2 -3 6 -30 10 -60 6 -53 10 -81 20
-137 2 -16 7 -46 10 -68 2 -22 7 -51 9 -65 3 -14 10 -61 16 -105 7 -44 13 -87
15 -95 1 -8 5 -36 9 -61 4 -25 9 -57 11 -70 4 -22 25 -165 45 -304 5 -33 12
-78 15 -100 4 -22 8 -51 10 -65 6 -41 17 -114 21 -135 2 -11 11 -73 20 -137
l17 -117 91 2 90 2 151 326 c82 179 172 372 199 430 27 57 86 185 131 284 104
226 133 289 183 395 21 47 49 108 62 135 12 28 24 53 27 58 2 4 -47 7 -110 7
l-113 0 -285 -640 c-156 -352 -287 -640 -290 -640 -3 0 -6 6 -6 13 0 11 -8 82
-18 157 -3 19 -10 73 -15 120 -6 47 -13 99 -15 115 -3 17 -12 86 -20 155 -9
69 -18 136 -20 150 -2 14 -6 48 -9 75 -4 28 -8 61 -11 75 -2 14 -7 50 -10 80
-3 30 -7 66 -9 80 -3 14 -7 48 -10 75 -8 63 -16 124 -21 150 -2 11 -4 23 -4
28 -1 4 -48 7 -106 7 l-106 0 7 -57z"/>
<path d="M2249 2118 c-3 -29 -7 -55 -13 -83 -4 -16 -9 -45 -11 -64 -5 -35 -11
-67 -20 -111 -2 -13 -7 -42 -11 -64 -3 -22 -7 -43 -9 -46 -3 -4 -11 -58 -20
-130 -1 -8 -5 -28 -8 -45 -4 -16 -9 -47 -11 -67 -2 -20 -7 -45 -10 -55 -2 -10
-7 -36 -11 -58 -5 -39 -32 -196 -41 -245 -2 -14 -7 -40 -10 -59 -3 -18 -8 -43
-10 -55 -2 -11 -7 -37 -10 -56 -21 -126 -115 -252 -229 -304 -51 -23 -157 -32
-213 -16 -93 24 -166 127 -179 250 l-6 61 -101 -3 -101 -3 3 -55 c10 -204 132
-366 315 -422 89 -27 229 -22 327 12 214 73 367 271 405 525 5 37 40 247 50
305 21 114 25 139 29 165 3 17 8 41 10 55 3 14 7 41 10 60 3 19 10 60 16 90 6
30 13 73 15 95 3 22 7 51 10 65 10 50 15 75 20 115 3 22 8 47 10 55 2 8 7 34
10 58 l6 42 -106 0 c-77 0 -105 -3 -106 -12z"/>
</g>
</svg>
